<svg width="34" height="24" viewBox="0 0 34 24" fill="none" xmlns="http://www.w3.org/2000/svg">
<path d="M21.603 0L21.1794 0.581206C23.7929 1.23908 26.2365 2.42709 28.3522 4.06844C23.9113 1.64352 18.7957 0.673759 13.7525 1.30079H13.2442C10.9724 1.63866 8.77019 2.33006 6.72093 3.34885C5.64784 3.81935 4.99834 4.15147 4.99834 4.15147C7.23819 2.37601 9.85186 1.1094 12.6512 0.442823L12.3405 0.0830299C9.37279 0.240353 6.52508 1.28334 4.1794 3.07209C1.53069 8.22923 0.102153 13.9052 0 19.678C1.00202 21.0565 2.33537 22.1717 3.88201 22.9248C5.42865 23.6779 7.14087 24.0456 8.86711 23.9955L10.8156 21.643C8.77314 21.1133 6.98458 19.899 5.7608 18.2111C6.02459 18.3828 6.298 18.5399 6.57974 18.6816H6.83389C7.51204 19.06 8.22034 19.3839 8.95183 19.6503C10.3297 20.1903 11.7578 20.5981 13.2159 20.868C15.7076 21.3249 18.2641 21.3249 20.7558 20.868C22.2185 20.7315 23.6594 20.4249 25.0482 19.9547C26.218 19.5233 27.3355 18.9664 28.3804 18.2941C27.0843 19.9849 25.2266 21.1791 23.1279 21.6707C24.0033 22.75 25.0482 23.9678 25.0482 23.9678C26.7916 24.0133 28.5198 23.6383 30.0807 22.8758C31.6416 22.1133 32.9875 20.9867 34 19.5949C33.8978 13.8222 32.4693 8.1462 29.8206 2.98906C27.4593 1.18973 24.5903 0.146149 21.603 0ZM11.5498 16.6059C11.1342 16.6456 10.7147 16.5996 10.3183 16.4709C9.92193 16.3423 9.55737 16.1337 9.24811 15.8587C8.93884 15.5837 8.6917 15.2484 8.52257 14.8742C8.35345 14.5 8.26608 14.0953 8.26608 13.686C8.26608 13.2767 8.35345 12.872 8.52257 12.4978C8.6917 12.1236 8.93884 11.7883 9.24811 11.5133C9.55737 11.2383 9.92193 11.0297 10.3183 10.9011C10.7147 10.7724 11.1342 10.7264 11.5498 10.7661C12.2899 10.8368 12.9767 11.175 13.4764 11.7148C13.976 12.2545 14.2528 12.9572 14.2528 13.686C14.2528 14.4148 13.976 15.1175 13.4764 15.6573C12.9767 16.197 12.2899 16.5352 11.5498 16.6059ZM25.1046 14.198C25.0521 14.8257 24.8108 15.4239 24.4112 15.9171C24.0116 16.4103 23.4717 16.7762 22.8599 16.9685C22.248 17.1608 21.5917 17.171 20.974 16.9976C20.3563 16.8242 19.8049 16.4752 19.3897 15.9946C18.9744 15.514 18.714 14.9235 18.6413 14.2977C18.5687 13.672 18.687 13.0393 18.9814 12.4795C19.2758 11.9198 19.733 11.4582 20.2952 11.1532C20.8574 10.8482 21.4992 10.7135 22.1395 10.7661C22.9586 10.8021 23.7299 11.154 24.2853 11.745C24.8408 12.336 25.1353 13.1183 25.1046 13.9213V14.198Z" fill="#323232"/>
</svg>
