<svg width="17" height="24" viewBox="0 0 17 24" fill="none" xmlns="http://www.w3.org/2000/svg">
<path d="M0.312 0.599998H3.832V23H0.312V0.599998ZM11.4603 23.32C9.75358 23.32 8.45225 22.84 7.55625 21.88C6.66025 20.8987 6.21225 19.5013 6.21225 17.688V5.912C6.21225 4.09867 6.66025 2.712 7.55625 1.752C8.45225 0.770665 9.75358 0.279999 11.4603 0.279999C13.1669 0.279999 14.4683 0.770665 15.3643 1.752C16.2603 2.712 16.7083 4.09867 16.7083 5.912V7.832H13.3802V5.688C13.3802 4.216 12.7723 3.48 11.5563 3.48C10.3403 3.48 9.73225 4.216 9.73225 5.688V17.944C9.73225 19.3947 10.3403 20.12 11.5563 20.12C12.7723 20.12 13.3802 19.3947 13.3802 17.944V13.56H11.6203V10.36H16.7083V17.688C16.7083 19.5013 16.2603 20.8987 15.3643 21.88C14.4683 22.84 13.1669 23.32 11.4603 23.32Z" fill="#323232"/>
</svg>
