<svg width="30" height="30" viewBox="0 0 30 30" fill="none" xmlns="http://www.w3.org/2000/svg">
<g clip-path="url(#clip0_659_12143)">
<path d="M29.8929 6.57012C29.7822 6.46976 29.6176 6.45726 29.4931 6.5398C28.9426 6.90503 28.2005 7.09044 27.5837 7.18463C28.3212 6.58308 29.1813 5.63756 29.1756 4.41916C29.1751 4.29661 29.1059 4.1846 28.9965 4.12929C28.8871 4.07398 28.7559 4.08471 28.6568 4.1569C27.539 4.97259 25.9369 5.40104 25.3502 5.53786C24.9354 4.85424 23.5086 2.84961 21.0426 2.84961C20.9047 2.84961 20.7639 2.85614 20.6243 2.86892C17.5598 3.15076 16.0748 4.94284 15.3688 6.39664C14.9224 7.31576 14.7264 8.20569 14.6405 8.79345C14.1545 8.36984 13.3068 7.72519 12.045 7.08008C10.1174 6.09437 6.80673 4.91943 1.9816 4.91943C1.51248 4.91943 1.03059 4.93053 0.54925 4.95244C0.439757 4.95748 0.340057 5.01708 0.283819 5.11118C0.227581 5.20528 0.222358 5.3214 0.270016 5.42016C1.29984 7.5589 3.51515 8.81518 4.9573 9.43725C4.16604 9.64691 3.3206 10.056 3.05582 10.7004C2.92143 11.0276 2.88692 11.5418 3.48559 12.1333C4.36451 13.0018 5.39779 13.5295 6.30824 13.8499C5.59495 13.9768 5.02538 14.1947 4.84072 14.5572C4.77049 14.6952 4.69038 14.9786 4.94331 15.3262C6.15584 16.9936 9.06205 17.642 10.3508 17.7478C10.1873 18.1362 9.84678 18.767 9.18917 19.3916C7.78405 20.7262 5.56846 21.4316 2.78191 21.4317C2.78163 21.4317 2.78135 21.4317 2.78107 21.4317C2.02385 21.4317 1.21115 21.3804 0.365239 21.2791C0.225529 21.2626 0.0906683 21.3371 0.0308858 21.4647C-0.0288967 21.5922 -0.000171228 21.7437 0.10214 21.8404C3.77573 25.3146 7.94615 27.1512 12.1626 27.1519C12.1635 27.1519 12.164 27.1519 12.1648 27.1519C16.8067 27.1519 21.3517 24.8695 24.3225 21.0465C26.9681 17.6419 27.9815 13.5668 27.126 9.81908C27.6975 9.57444 28.9591 8.85108 29.9618 6.965C30.0319 6.83312 30.0036 6.67047 29.8929 6.57012Z" fill="#323232"/>
</g>
<defs>
<clipPath id="clip0_659_12143">
<rect width="30" height="30" fill="white"/>
</clipPath>
</defs>
</svg>
